<svg xmlns="http://www.w3.org/2000/svg" width="800" height="800" viewBox="0 0 800 800">
  <defs>
    <linearGradient id="bg4" x1="0%" y1="0%" x2="100%" y2="100%">
      <stop offset="0%" stop-color="#1a2a1a"/>
      <stop offset="50%" stop-color="#2d4a2d"/>
      <stop offset="100%" stop-color="#0f1a0f"/>
    </linearGradient>
    <linearGradient id="emerald" x1="0%" y1="0%" x2="100%" y2="100%">
      <stop offset="0%" stop-color="#50C878"/>
      <stop offset="50%" stop-color="#3CB371"/>
      <stop offset="100%" stop-color="#228B22"/>
    </linearGradient>
  </defs>
  <rect width="800" height="800" fill="url(#bg4)"/>
  <g opacity="0.1" fill="#50C878">
    <rect x="50" y="50" width="200" height="200" rx="20"/>
    <rect x="550" y="50" width="200" height="200" rx="20"/>
    <rect x="50" y="550" width="200" height="200" rx="20"/>
    <rect x="550" y="550" width="200" height="200" rx="20"/>
  </g>
  <g transform="translate(400,400)">
    <path d="M0,-100 L20,-20 L100,0 L20,20 L0,100 L-20,20 L-100,0 L-20,-20 Z" fill="url(#emerald)" opacity="0.7"/>
    <circle cx="0" cy="0" r="140" fill="none" stroke="url(#emerald)" stroke-width="2" opacity="0.4" stroke-dasharray="15,10"/>
    <circle cx="0" cy="0" r="30" fill="#2d4a2d"/>
    <text x="0" y="10" text-anchor="middle" fill="url(#emerald)" font-family="serif" font-size="32">☪</text>
  </g>
  <g fill="url(#emerald)" opacity="0.5">
    <circle cx="400" cy="150" r="8"/>
    <circle cx="400" cy="650" r="8"/>
    <circle cx="150" cy="400" r="8"/>
    <circle cx="650" cy="400" r="8"/>
  </g>
  <g stroke="url(#emerald)" fill="none" opacity="0.3">
    <rect x="250" y="250" width="300" height="300" rx="20"/>
  </g>
</svg>